<?xml version="1.0" standalone="no"?>
<!DOCTYPE svg PUBLIC "-//W3C//DTD SVG 20010904//EN"
 "http://www.w3.org/TR/2001/REC-SVG-20010904/DTD/svg10.dtd">
<svg version="1.0" xmlns="http://www.w3.org/2000/svg"
 width="752.000000pt" height="752.000000pt" viewBox="0 0 752.000000 752.000000"
 preserveAspectRatio="xMidYMid meet">

<g transform="translate(0.000000,752.000000) scale(0.100000,-0.100000)"
fill="#000000" stroke="none">
<path d="M3507 5485 c-709 -97 -1304 -585 -1537 -1261 -69 -199 -91 -328 -97
-559 -6 -220 7 -344 53 -527 156 -619 631 -1128 1241 -1327 678 -222 1420 -49
1920 448 304 302 488 667 549 1091 24 171 15 471 -20 635 -170 801 -808 1394
-1614 1500 -136 18 -361 18 -495 0z m513 -322 c630 -103 1143 -589 1281 -1213
77 -352 29 -735 -132 -1050 -226 -442 -625 -745 -1112 -842 -151 -30 -423 -32
-572 -4 -425 79 -802 326 -1038 679 -305 458 -349 1044 -115 1547 76 163 180
309 320 447 136 135 236 207 406 292 297 150 628 199 962 144z"/>
<path d="M3070 3817 c-63 -41 -75 -77 -75 -212 0 -108 2 -124 23 -157 46 -73
156 -99 221 -51 58 44 66 65 69 198 4 143 -7 180 -67 221 -48 32 -124 33 -171
1z"/>
<path d="M3681 3818 c-67 -46 -76 -67 -79 -196 -3 -106 -1 -121 20 -162 25
-48 89 -90 138 -90 49 0 113 42 138 90 18 37 22 60 22 147 0 116 -11 152 -59
197 -25 24 -42 30 -88 34 -48 3 -64 0 -92 -20z"/>
<path d="M4279 3816 c-58 -40 -71 -83 -67 -224 3 -130 11 -151 69 -195 65 -48
175 -22 221 51 21 33 23 49 23 157 0 103 -3 125 -21 155 -47 80 -151 106 -225
56z"/>
</g>
</svg>
